grf
version=1
nRows=9
nColumns=46
inDegrees=yes
endheader
time	ground_force_1_vx	ground_force_1_vy	ground_force_1_vz	ground_force_1_px	ground_force_1_py	ground_force_1_pz	ground_moment_1_mx	ground_moment_1_my	ground_moment_1_mz	ground_force_2_vx	ground_force_2_vy	ground_force_2_vz	ground_force_2_px	ground_force_2_py	ground_force_2_pz	ground_moment_2_mx	ground_moment_2_my	ground_moment_2_mz	ground_force_3_vx	ground_force_3_vy	ground_force_3_vz	ground_force_3_px	ground_force_3_py	ground_force_3_pz	ground_moment_3_mx	ground_moment_3_my	ground_moment_3_mz	ground_force_4_vx	ground_force_4_vy	ground_force_4_vz	ground_force_4_px	ground_force_4_py	ground_force_4_pz	ground_moment_4_mx	ground_moment_4_my	ground_moment_4_mz	ground_force_5_vx	ground_force_5_vy	ground_force_5_vz	ground_force_5_px	ground_force_5_py	ground_force_5_pz	ground_moment_5_mx	ground_moment_5_my	ground_moment_5_mz
0.000000	0.000000	0.000000	0.000000	0.000000	0.000000	0.000000	0.000000	0.000000	0.000000	0.000000	0.000000	0.000000	0.000000	0.000000	0.000000	0.000000	0.000000	0.000000	0.000000	0.000000	0.000000	0.000000	0.000000	0.000000	0.000000	0.000000	0.000000	7.380372	425.142944	-48.324796	0.195477	0.000000	-1.046775	0.000000	3.039750	0.000000	-2.279505	468.405945	48.042801	0.222999	0.000000	-1.405220	0.000000	-2.846302	-0.000000
0.000500	0.000000	0.000000	0.000000	0.000000	0.000000	0.000000	0.000000	0.000000	0.000000	0.000000	0.000000	0.000000	0.000000	0.000000	0.000000	0.000000	0.000000	0.000000	0.000000	0.000000	0.000000	0.000000	0.000000	0.000000	0.000000	0.000000	0.000000	7.137264	425.782562	-48.002710	0.195458	0.000000	-1.046690	0.000000	3.024055	0.000000	-2.681773	467.448639	48.444645	0.223134	0.000000	-1.404744	-0.000000	-2.768784	-0.000000
0.001000	0.000000	0.000000	0.000000	0.000000	0.000000	0.000000	0.000000	0.000000	0.000000	0.000000	0.000000	0.000000	0.000000	0.000000	0.000000	0.000000	0.000000	0.000000	0.000000	0.000000	0.000000	0.000000	0.000000	0.000000	0.000000	0.000000	0.000000	6.894156	426.422180	-47.680619	0.195440	0.000000	-1.046606	0.000000	3.008388	0.000000	-3.084041	466.491333	48.846489	0.223269	0.000000	-1.404267	0.000000	-2.690742	-0.000000
0.001500	0.000000	0.000000	0.000000	0.000000	0.000000	0.000000	0.000000	0.000000	0.000000	0.000000	0.000000	0.000000	0.000000	0.000000	0.000000	0.000000	0.000000	0.000000	0.000000	0.000000	0.000000	0.000000	0.000000	0.000000	0.000000	0.000000	0.000000	6.974677	425.301392	-47.841664	0.195480	0.000000	-1.047058	0.000000	3.036707	0.000000	-2.923082	467.128418	49.087631	0.223109	0.000000	-1.404287	0.000000	-2.724520	-0.000000
0.002000	0.000000	0.000000	0.000000	0.000000	0.000000	0.000000	0.000000	0.000000	0.000000	0.000000	0.000000	0.000000	0.000000	0.000000	0.000000	0.000000	0.000000	0.000000	0.000000	0.000000	0.000000	0.000000	0.000000	0.000000	0.000000	0.000000	0.000000	7.055198	424.180573	-48.002710	0.195521	0.000000	-1.047513	-0.000000	3.065093	-0.000000	-2.762124	467.765533	49.328770	0.222949	0.000000	-1.404307	-0.000000	-2.758348	-0.000000
0.002500	0.000000	0.000000	0.000000	0.000000	0.000000	0.000000	0.000000	0.000000	0.000000	0.000000	0.000000	0.000000	0.000000	0.000000	0.000000	0.000000	0.000000	0.000000	0.000000	0.000000	0.000000	0.000000	0.000000	0.000000	0.000000	0.000000	0.000000	7.296762	424.984375	-47.761907	0.195347	0.000000	-1.046678	0.000000	3.174218	0.000000	-2.439189	467.128418	49.248161	0.222936	0.000000	-1.404259	0.000000	-2.646721	-0.000000
0.003000	0.000000	0.000000	0.000000	0.000000	0.000000	0.000000	0.000000	0.000000	0.000000	0.000000	0.000000	0.000000	0.000000	0.000000	0.000000	0.000000	0.000000	0.000000	0.000000	0.000000	0.000000	0.000000	0.000000	0.000000	0.000000	0.000000	0.000000	7.538326	425.788147	-47.521104	0.195174	0.000000	-1.045846	0.000000	3.282850	0.000000	-2.116254	466.491302	49.167557	0.222923	0.000000	-1.404211	0.000000	-2.535125	-0.000000
0.003500	0.000000	0.000000	0.000000	0.000000	0.000000	0.000000	0.000000	0.000000	0.000000	0.000000	0.000000	0.000000	0.000000	0.000000	0.000000	0.000000	0.000000	0.000000	0.000000	0.000000	0.000000	0.000000	0.000000	0.000000	0.000000	0.000000	0.000000	7.539871	425.306946	-47.842683	0.195139	0.000000	-1.046738	0.000000	3.209079	0.000000	-2.358328	466.809875	49.167725	0.222973	0.000000	-1.404600	-0.000000	-2.600545	-0.000000
0.004000	0.000000	0.000000	0.000000	0.000000	0.000000	0.000000	0.000000	0.000000	0.000000	0.000000	0.000000	0.000000	0.000000	0.000000	0.000000	0.000000	0.000000	0.000000	0.000000	0.000000	0.000000	0.000000	0.000000	0.000000	0.000000	0.000000	0.000000	7.541415	424.825745	-48.164262	0.195104	0.000000	-1.047632	0.000000	3.135353	0.000000	-2.600402	467.128418	49.167896	0.223024	0.000000	-1.404989	0.000000	-2.666155	-0.000000
